<svg xmlns="http://www.w3.org/2000/svg" xmlns:xlink="http://www.w3.org/1999/xlink" version="1.1" width="757.5794pt" height="301.4735pt" viewBox="0 0 757.5794 301.4735">
<defs>
<clipPath id="clip_0">
<path transform="matrix(.24,0,0,.24,-4.285294,-136.16178)" d="M0 0H3200V2431.25H0Z" fill-rule="evenodd"/>
</clipPath>
<clipPath id="clip_1">
<path transform="matrix(.24,0,0,.24,-4.285294,-136.16178)" d="M0 0H3200V2400H0Z" fill-rule="evenodd"/>
</clipPath>
<clipPath id="clip_2">
<path transform="matrix(.24,0,0,.24,-4.285294,-136.16178)" d="M0 0H3200V2400H0Z" fill-rule="evenodd"/>
</clipPath>
<clipPath id="clip_3">
<path transform="matrix(.24,0,0,.24,-4.285294,-136.16178)" d="M0 0H3200V2400H0Z" fill-rule="evenodd"/>
</clipPath>
<clipPath id="clip_4">
<path transform="matrix(.24,0,0,.24,-4.285294,-136.16178)" d="M164.90955 657.02468H3162.5567V658.7867H164.90955Z" fill-rule="evenodd"/>
</clipPath>
<clipPath id="clip_5">
<path transform="matrix(.24,0,0,.24,35.074708,21.518219)" d="M0 0H2999V2H0Z" fill-rule="evenodd"/>
</clipPath>
<clipPath id="clip_6">
<path transform="matrix(.24,0,0,.24,-4.285294,-136.16178)" d="M164.90955 860.00698H3162.5567V861.769H164.90955Z" fill-rule="evenodd"/>
</clipPath>
<clipPath id="clip_7">
<path transform="matrix(.24,0,0,.24,35.074708,70.23822)" d="M0 0H2999V2H0Z" fill-rule="evenodd"/>
</clipPath>
<clipPath id="clip_8">
<path transform="matrix(.24,0,0,.24,-4.285294,-136.16178)" d="M164.90955 1062.9893H3162.5567V1064.7514H164.90955Z" fill-rule="evenodd"/>
</clipPath>
<clipPath id="clip_9">
<path transform="matrix(.24,0,0,.24,35.074708,118.718219)" d="M0 0H2999V3H0Z" fill-rule="evenodd"/>
</clipPath>
<clipPath id="clip_10">
<path transform="matrix(.24,0,0,.24,-4.285294,-136.16178)" d="M164.90955 1265.9717H3162.5567V1267.7337H164.90955Z" fill-rule="evenodd"/>
</clipPath>
<clipPath id="clip_11">
<path transform="matrix(.24,0,0,.24,35.074708,167.43824)" d="M0 0H2999V3H0Z" fill-rule="evenodd"/>
</clipPath>
<clipPath id="clip_12">
<path transform="matrix(.24,0,0,.24,-4.285294,-136.16178)" d="M164.90955 1468.954H3162.5567V1470.7161H164.90955Z" fill-rule="evenodd"/>
</clipPath>
<clipPath id="clip_13">
<path transform="matrix(.24,0,0,.24,35.074708,216.15824)" d="M0 0H2999V3H0Z" fill-rule="evenodd"/>
</clipPath>
<clipPath id="clip_14">
<path transform="matrix(.24,0,0,.24,-4.285294,-136.16178)" d="M164.90955 1671.9363H3162.5567V1673.6984H164.90955Z" fill-rule="evenodd"/>
</clipPath>
<clipPath id="clip_15">
<path transform="matrix(.24,0,0,.24,35.074708,264.8782)" d="M0 0H2999V3H0Z" fill-rule="evenodd"/>
</clipPath>
<clipPath id="clip_16">
<path transform="matrix(.24,0,0,.24,-4.285294,-136.16178)" d="M0 0H3200V2400H0Z" fill-rule="evenodd"/>
</clipPath>
<clipPath id="clip_17">
<path transform="matrix(.24,0,0,.24,-4.285294,-136.16178)" d="M0 0H3200V2431.25H0Z"/>
</clipPath>
<clipPath id="clip_18">
<path transform="matrix(.24,0,0,.24,-4.285294,-136.16178)" d="M0 0H3200V2400H0Z"/>
</clipPath>
<clipPath id="clip_19">
<path transform="matrix(.24,0,0,.24,-4.285294,-136.16178)" d="M0 0H3200V2400H0Z"/>
</clipPath>
<clipPath id="clip_20">
<path transform="matrix(.24,0,0,.24,-4.285294,-136.16178)" d="M388.28349 1413.8035H930.9794V1699.2474H388.28349Z"/>
</clipPath>
<clipPath id="clip_21">
<path transform="matrix(.24,0,0,.24,-4.285294,-136.16178)" d="M441.14347 1672.8174C441.14347 1658.2205 429.31037 1646.3875 414.71348 1646.3875 400.11659 1646.3875 388.28349 1658.2205 388.28349 1672.8174 388.28349 1687.4143 400.11659 1699.2474 414.71348 1699.2474 429.31037 1699.2474 441.14347 1687.4143 441.14347 1672.8174M411.3037 1663.7461C399.257 1668.2742 406.07649 1686.4169 418.1232 1681.8888 418.1232 1681.8888 418.25358 1681.84 418.51039 1681.7433 426.84046 1678.6076 567.71047 1625.3579 708.20846 1557.6537 766.3179 1529.6514 824.359 1499.1753 872.99307 1468.7507 889.94699 1458.1447 905.7638 1447.5418 920.0559 1437.0508 930.4304 1429.4354 918.96157 1413.811 908.5868 1421.4263 894.65689 1431.6516 879.23806 1441.9818 862.71377 1452.3191 814.6327 1482.3977 757.24246 1512.5098 699.79446 1540.1934 560.0655 1607.5269 419.9667 1660.4854 411.68653 1663.6022 411.43409 1663.6973 411.3037 1663.7461 411.3037 1663.7461"/>
</clipPath>
<clipPath id="clip_22">
<path transform="matrix(.24,0,0,.24,-4.285294,-136.16178)" d="M0 0H3200V2431.25H0Z"/>
</clipPath>
<clipPath id="clip_23">
<path transform="matrix(.24,0,0,.24,-4.285294,-136.16178)" d="M0 0H3200V2400H0Z"/>
</clipPath>
<clipPath id="clip_24">
<path transform="matrix(.24,0,0,.24,-4.285294,-136.16178)" d="M0 0H3200V2400H0Z"/>
</clipPath>
<clipPath id="clip_25">
<path transform="matrix(.24,0,0,.24,-4.285294,-136.16178)" d="M886.9293 888.72769H1429.6251V1456.0916H886.9293Z"/>
</clipPath>
<clipPath id="clip_26">
<path transform="matrix(.24,0,0,.24,-4.285294,-136.16178)" d="M940.75137 1429.2385C940.75137 1414.6417 928.9182 1402.8086 914.3214 1402.8086 899.7245 1402.8086 887.89138 1414.6417 887.89138 1429.2385 887.89138 1443.8355 899.7245 1455.6686 914.3214 1455.6686 928.9182 1455.6686 940.75137 1443.8355 940.75137 1429.2385M908.5868 1421.4263C898.21218 1429.0418 909.6813 1444.6663 920.0559 1437.0508 996.0624 1381.2589 1064.8562 1286.7622 1132.5691 1192.2672 1134.9645 1188.9242 1137.3589 1185.5814 1139.7522 1182.2406 1146.9254 1172.2278 1154.0906 1162.2327 1161.2553 1152.3025 1233.04 1052.8114 1304.4824 959.46578 1384.3645 922.3824 1394.8656 917.50747 1405.5094 913.6279 1416.32 910.876 1428.7918 907.7012 1424.0104 888.9182 1411.5386 892.093 1399.5866 895.1355 1387.8141 899.41238 1376.2033 904.80239 1293.9321 942.9949 1219.5972 1038.3176 1145.5375 1140.9618 1138.36 1150.9096 1131.1823 1160.9224 1123.9963 1170.9529 1121.6033 1174.2932 1119.2094 1177.6354 1116.8143 1180.9778 1050.3909 1273.6736 983.17568 1366.675 908.5868 1421.4263"/>
</clipPath>
<clipPath id="clip_27">
<path transform="matrix(.24,0,0,.24,-4.285294,-136.16178)" d="M0 0H3200V2431.25H0Z"/>
</clipPath>
<clipPath id="clip_28">
<path transform="matrix(.24,0,0,.24,-4.285294,-136.16178)" d="M0 0H3200V2400H0Z"/>
</clipPath>
<clipPath id="clip_29">
<path transform="matrix(.24,0,0,.24,-4.285294,-136.16178)" d="M0 0H3200V2400H0Z"/>
</clipPath>
<clipPath id="clip_30">
<path transform="matrix(.24,0,0,.24,-4.285294,-136.16178)" d="M1387.3372 874.63168H1928.271V1075.4995H1387.3372Z"/>
</clipPath>
<clipPath id="clip_31">
<path transform="matrix(.24,0,0,.24,-4.285294,-136.16178)" d="M1440.3593 901.4845C1440.3593 886.88766 1428.526 875.0545 1413.9292 875.0545 1399.3323 875.0545 1387.4993 886.88766 1387.4993 901.4845 1387.4993 916.0814 1399.3323 927.91458 1413.9292 927.91458 1428.526 927.91458 1440.3593 916.0814 1440.3593 901.4845M1411.5386 892.093C1399.0667 895.2678 1403.848 914.05087 1416.32 910.876 1431.0204 907.1338 1445.92 905.5014 1460.9895 905.59658 1535.9528 906.07009 1614.8668 948.4603 1694.8605 990.11007 1722.1719 1004.3301 1749.5996 1018.51809 1777.0236 1031.0997 1822.3242 1051.8829 1867.6395 1068.2521 1912.4098 1073.4956 1925.192 1074.9927 1927.4467 1055.7422 1914.6643 1054.2451 1871.7959 1049.2244 1828.4638 1033.3751 1785.1057 1013.4833 1757.9706 1001.03408 1730.835 986.9889 1703.8114 972.9187 1620.8002 929.6979 1538.7645 886.7055 1461.1119 886.21499 1444.3865 886.1094 1427.8528 887.94009 1411.5386 892.093"/>
</clipPath>
<clipPath id="clip_32">
<path transform="matrix(.24,0,0,.24,-4.285294,-136.16178)" d="M0 0H3200V2431.25H0Z"/>
</clipPath>
<clipPath id="clip_33">
<path transform="matrix(.24,0,0,.24,-4.285294,-136.16178)" d="M0 0H3200V2400H0Z"/>
</clipPath>
<clipPath id="clip_34">
<path transform="matrix(.24,0,0,.24,-4.285294,-136.16178)" d="M0 0H3200V2400H0Z"/>
</clipPath>
<clipPath id="clip_35">
<path transform="matrix(.24,0,0,.24,-4.285294,-136.16178)" d="M1885.983 1010.3056H2426.917V1091.3576H1885.983Z"/>
</clipPath>
<clipPath id="clip_36">
<path transform="matrix(.24,0,0,.24,-4.285294,-136.16178)" d="M1939.967 1063.8704C1939.967 1049.2734 1928.134 1037.4404 1913.5371 1037.4404 1898.9402 1037.4404 1887.107 1049.2734 1887.107 1063.8704 1887.107 1078.4673 1898.9402 1090.3003 1913.5371 1090.3003 1928.134 1090.3003 1939.967 1078.4673 1939.967 1063.8704M1914.6643 1054.2451C1901.8821 1052.7482 1899.6276 1071.9985 1912.4098 1073.4956 1930.8823 1075.659 1949.4198 1076.6477 1968.009 1076.7114 2034.8345 1076.9401 2102.3375 1065.1619 2169.8577 1053.3877 2171.5308 1053.0958 2173.2047 1052.804 2174.8785 1052.5125 2237.9339 1041.5266 2300.9908 1030.814 2363.5076 1030.6782 2379.7779 1030.643 2396.011 1031.3272 2412.1968 1032.9185 2425.0047 1034.1776 2426.9012 1014.8887 2414.0933 1013.6294 2397.263 1011.97476 2380.3839 1011.2596 2363.4654 1011.29629 2299.8656 1011.4343 2235.705 1022.24099 2171.5509 1033.4182 2169.8763 1033.71 2168.2025 1034.0018 2166.5286 1034.2937 2100.1439 1045.8699 2033.7824 1057.5545 1968.0753 1057.3295 1950.218 1057.2683 1932.4099 1056.3235 1914.6643 1054.2451"/>
</clipPath>
<clipPath id="clip_37">
<path transform="matrix(.24,0,0,.24,-4.285294,-136.16178)" d="M0 0H3200V2431.25H0Z"/>
</clipPath>
<clipPath id="clip_38">
<path transform="matrix(.24,0,0,.24,-4.285294,-136.16178)" d="M0 0H3200V2400H0Z"/>
</clipPath>
<clipPath id="clip_39">
<path transform="matrix(.24,0,0,.24,-4.285294,-136.16178)" d="M0 0H3200V2400H0Z"/>
</clipPath>
<clipPath id="clip_40">
<path transform="matrix(.24,0,0,.24,-4.285294,-136.16178)" d="M2386.3909 996.2096H2939.6588V1191.7915H2386.3909Z"/>
</clipPath>
<clipPath id="clip_41">
<path transform="matrix(.24,0,0,.24,-4.285294,-136.16178)" d="M2439.575 1023.2739C2439.575 1008.677 2427.7418 996.84396 2413.145 996.84396 2398.548 996.84396 2386.715 1008.677 2386.715 1023.2739 2386.715 1037.8709 2398.548 1049.7039 2413.145 1049.7039 2427.7418 1049.7039 2439.575 1037.8709 2439.575 1023.2739M2414.0933 1013.6294C2401.2855 1012.3702 2399.389 1031.6592 2412.1968 1032.9185 2467.1895 1038.3252 2539.832 1055.5505 2612.496 1076.1476 2641.274 1084.3048 2670.054 1092.995 2697.752 1101.7039 2811.7264 1137.5399 2907.3929 1173.6951 2909.2947 1174.4146 2909.313 1174.4215 2909.3228 1174.4252 2909.3228 1174.4252 2921.3592 1178.9805 2928.2196 1160.8532 2916.1829 1156.2979 2916.1829 1156.2979 2916.1734 1156.2942 2916.154 1156.287 2914.2418 1155.5635 2818.1033 1119.2274 2703.5657 1083.2144 2675.696 1074.4515 2646.7379 1065.708 2617.7818 1057.5003 2543.8914 1036.5557 2470.01 1019.12698 2414.0933 1013.6294M2939.1827 1165.3616C2939.1827 1150.7647 2927.3497 1138.9315 2912.7528 1138.9315 2898.156 1138.9315 2886.3228 1150.7647 2886.3228 1165.3616 2886.3228 1179.9585 2898.156 1191.7915 2912.7528 1191.7915 2927.3497 1191.7915 2939.1827 1179.9585 2939.1827 1165.3616"/>
</clipPath>
<clipPath id="clip_42">
<path transform="matrix(.24,0,0,.24,-4.285294,-136.16178)" d="M0 0H3200V2431.25H0Z"/>
</clipPath>
<clipPath id="clip_43">
<path transform="matrix(.24,0,0,.24,-4.285294,-136.16178)" d="M0 0H3200V2400H0Z"/>
</clipPath>
<clipPath id="clip_44">
<path transform="matrix(.24,0,0,.24,-4.285294,-136.16178)" d="M0 0H3200V2400H0Z"/>
</clipPath>
<clipPath id="clip_45">
<path transform="matrix(.24,0,0,.24,-4.285294,-136.16178)" d="M388.28349 1401.4695H929.2173V1604.0994H388.28349Z"/>
</clipPath>
<clipPath id="clip_46">
<path transform="matrix(.24,0,0,.24,-4.285294,-136.16178)" d="M441.14347 1429.2385C441.14347 1414.6417 429.31037 1402.8086 414.71348 1402.8086 400.11659 1402.8086 388.28349 1414.6417 388.28349 1429.2385 388.28349 1443.8355 400.11659 1455.6686 414.71348 1455.6686 429.31037 1455.6686 441.14347 1443.8355 441.14347 1429.2385M419.33097 1420.7184C408.01609 1414.5864 398.78114 1431.6267 410.09599 1437.7588 410.09599 1437.7588 410.16319 1437.7954 410.29615 1437.8673 414.62074 1440.2077 488.0131 1479.7672 581.506 1519.534 620.5222 1536.1294 663.0351 1552.7588 705.49258 1566.7449 771.0171 1588.3296 836.4247 1603.5464 888.91787 1603.022 898.2245 1602.929 907.1367 1602.3464 915.588 1601.2323 928.3473 1599.5503 925.81399 1580.3345 913.0547 1582.0166 905.34487 1583.0331 897.214 1583.5562 888.72427 1583.6409 837.9984 1584.1477 774.84487 1569.1841 711.55679 1548.3359 669.61978 1534.5213 627.6301 1518.0903 589.0923 1501.6985 496.49607 1462.313 423.8041 1423.1393 419.526 1420.8241 419.39817 1420.7549 419.33097 1420.7184 419.33097 1420.7184"/>
</clipPath>
<clipPath id="clip_47">
<path transform="matrix(.24,0,0,.24,-4.285294,-136.16178)" d="M0 0H3200V2431.25H0Z"/>
</clipPath>
<clipPath id="clip_48">
<path transform="matrix(.24,0,0,.24,-4.285294,-136.16178)" d="M0 0H3200V2400H0Z"/>
</clipPath>
<clipPath id="clip_49">
<path transform="matrix(.24,0,0,.24,-4.285294,-136.16178)" d="M0 0H3200V2400H0Z"/>
</clipPath>
<clipPath id="clip_50">
<path transform="matrix(.24,0,0,.24,-4.285294,-136.16178)" d="M886.9293 1253.4616H1429.6251V1618.1954H886.9293Z"/>
</clipPath>
<clipPath id="clip_51">
<path transform="matrix(.24,0,0,.24,-4.285294,-136.16178)" d="M940.75137 1591.6245C940.75137 1577.0276 928.9182 1565.1945 914.3214 1565.1945 899.7245 1565.1945 887.89138 1577.0276 887.89138 1591.6245 887.89138 1606.2214 899.7245 1618.0545 914.3214 1618.0545 928.9182 1618.0545 940.75137 1606.2214 940.75137 1591.6245M913.0547 1582.0166C900.29556 1583.6987 902.82876 1602.9144 915.588 1601.2323 967.49917 1594.3887 1017.93838 1566.0602 1067.6604 1528.1425 1098.7037 1504.469 1129.5023 1477.0942 1160.2932 1449.1892 1165.1978 1444.7444 1170.1023 1440.2861 1175.0078 1435.8276 1251.2975 1366.4895 1327.6176 1296.5298 1408.4638 1277.9039 1410.8854 1277.346 1413.3108 1276.8352 1415.7404 1276.3729 1428.3832 1273.9678 1424.761 1254.9273 1412.118 1257.3325 1409.4451 1257.8411 1406.7766 1258.4028 1404.1124 1259.0167 1320.518 1278.2756 1241.0128 1349.6459 1161.9717 1421.4846 1157.0731 1425.937 1152.1754 1430.389 1147.2777 1434.8276 1116.9025 1462.356 1086.532 1489.3764 1055.9074 1512.7305 1009.17446 1548.3688 961.9381 1575.572 913.0547 1582.0166"/>
</clipPath>
<clipPath id="clip_52">
<path transform="matrix(.24,0,0,.24,-4.285294,-136.16178)" d="M0 0H3200V2431.25H0Z"/>
</clipPath>
<clipPath id="clip_53">
<path transform="matrix(.24,0,0,.24,-4.285294,-136.16178)" d="M0 0H3200V2400H0Z"/>
</clipPath>
<clipPath id="clip_54">
<path transform="matrix(.24,0,0,.24,-4.285294,-136.16178)" d="M0 0H3200V2400H0Z"/>
</clipPath>
<clipPath id="clip_55">
<path transform="matrix(.24,0,0,.24,-4.285294,-136.16178)" d="M1387.3372 1239.3655H1930.033V1390.8975H1387.3372Z"/>
</clipPath>
<clipPath id="clip_56">
<path transform="matrix(.24,0,0,.24,-4.285294,-136.16178)" d="M1440.3593 1266.8528C1440.3593 1252.2559 1428.526 1240.4227 1413.9292 1240.4227 1399.3323 1240.4227 1387.4993 1252.2559 1387.4993 1266.8528 1387.4993 1281.4497 1399.3323 1293.2827 1413.9292 1293.2827 1428.526 1293.2827 1440.3593 1281.4497 1440.3593 1266.8528M1412.118 1257.3325C1399.4751 1259.7378 1403.0975 1278.7782 1415.7404 1276.3729 1426.4152 1274.3422 1437.2247 1273.3497 1448.146 1273.2326 1504.4194 1272.6288 1563.5167 1294.9446 1622.6505 1319.791 1631.2673 1323.4116 1639.8842 1327.0903 1648.4926 1330.7683 1717.051 1360.0604 1785.1255 1388.9859 1848.4454 1389.5779 1872.0326 1389.7984 1894.9865 1386.1565 1917.1204 1377.3482 1929.0779 1372.5896 1921.9114 1354.581 1909.9539 1359.3397 1890.1879 1367.2057 1869.682 1370.3936 1848.6267 1370.1967 1787.5853 1369.626 1722.1193 1341.1489 1656.1077 1312.9451 1647.4636 1309.2518 1638.8109 1305.5579 1630.1586 1301.9223 1568.408 1275.9765 1506.6332 1253.2219 1447.938 1253.8517 1435.8655 1253.9812 1423.9176 1255.0877 1412.118 1257.3325"/>
</clipPath>
<clipPath id="clip_57">
<path transform="matrix(.24,0,0,.24,-4.285294,-136.16178)" d="M0 0H3200V2431.25H0Z"/>
</clipPath>
<clipPath id="clip_58">
<path transform="matrix(.24,0,0,.24,-4.285294,-136.16178)" d="M0 0H3200V2400H0Z"/>
</clipPath>
<clipPath id="clip_59">
<path transform="matrix(.24,0,0,.24,-4.285294,-136.16178)" d="M0 0H3200V2400H0Z"/>
</clipPath>
<clipPath id="clip_60">
<path transform="matrix(.24,0,0,.24,-4.285294,-136.16178)" d="M1885.983 645.5717H2428.679V1396.1835H1885.983Z"/>
</clipPath>
<clipPath id="clip_61">
<path transform="matrix(.24,0,0,.24,-4.285294,-136.16178)" d="M1939.967 1368.344C1939.967 1353.7471 1928.134 1341.914 1913.5371 1341.914 1898.9402 1341.914 1887.107 1353.7471 1887.107 1368.344 1887.107 1382.9408 1898.9402 1394.7739 1913.5371 1394.7739 1928.134 1394.7739 1939.967 1382.9408 1939.967 1368.344M1909.9539 1359.3397C1897.9962 1364.0983 1905.1627 1382.1067 1917.1204 1377.3482 1950.3301 1364.1321 1981.7304 1336.4374 2011.5673 1298.8052 2067.4737 1228.2927 2118.3353 1122.6336 2168.121 1017.3229 2170.868 1011.5122 2173.612 1005.7028 2176.3536 999.90078 2186.0626 979.354 2195.7425 958.89926 2205.4246 938.80648 2259.1888 827.235 2312.5906 726.50656 2372.1326 685.27279 2385.899 675.7393 2399.961 669.5174 2414.476 667.5049 2427.2237 665.7374 2424.5618 646.53909 2411.8143 648.3065 2394.4747 650.71066 2377.5755 657.9274 2361.0977 669.3386 2299.6627 711.8836 2243.5557 815.029 2187.964 930.3926 2178.2608 950.52926 2168.5596 971.02859 2158.8297 991.6201 2156.0885 997.42117 2153.345 1003.2295 2150.5985 1009.03909 2101.5013 1112.8933 2051.5216 1217.2156 1996.3798 1286.7636 1969.0103 1321.2837 1940.4954 1347.1856 1909.9539 1359.3397"/>
</clipPath>
<clipPath id="clip_62">
<path transform="matrix(.24,0,0,.24,-4.285294,-136.16178)" d="M0 0H3200V2431.25H0Z"/>
</clipPath>
<clipPath id="clip_63">
<path transform="matrix(.24,0,0,.24,-4.285294,-136.16178)" d="M0 0H3200V2400H0Z"/>
</clipPath>
<clipPath id="clip_64">
<path transform="matrix(.24,0,0,.24,-4.285294,-136.16178)" d="M0 0H3200V2400H0Z"/>
</clipPath>
<clipPath id="clip_65">
<path transform="matrix(.24,0,0,.24,-4.285294,-136.16178)" d="M2386.3909 631.4757H2939.6588V1091.3576H2386.3909Z"/>
</clipPath>
<clipPath id="clip_66">
<path transform="matrix(.24,0,0,.24,-4.285294,-136.16178)" d="M2439.575 657.9057C2439.575 643.30886 2427.7418 631.4757 2413.145 631.4757 2398.548 631.4757 2386.715 643.30886 2386.715 657.9057 2386.715 672.50259 2398.548 684.3357 2413.145 684.3357 2427.7418 684.3357 2439.575 672.50259 2439.575 657.9057M2411.8143 648.3065C2399.0665 650.074 2401.7283 669.27236 2414.476 667.5049 2417.236 667.1222 2420.063 666.90017 2422.9525 666.8295 2447.4298 666.2311 2476.0308 676.1988 2506.8785 692.78707 2541.7166 711.52127 2579.2357 738.7826 2616.828 770.14346 2652.1749 799.6314 2687.5665 832.74368 2720.8428 865.90469 2821.9544 966.66567 2903.5577 1067.9021 2905.1793 1069.9168 2905.1947 1069.9357 2905.2027 1069.9459 2905.2027 1069.9459 2913.271 1079.9724 2928.371 1067.8212 2920.3028 1057.7948 2920.3028 1057.7948 2920.2947 1057.7846 2920.2784 1057.7642 2918.6427 1055.7324 2836.4146 953.7129 2734.5242 852.1757 2700.8446 818.6129 2665.0189 785.1055 2629.2437 755.2604 2590.557 722.98648 2551.9066 694.99429 2516.058 675.7167 2481.6563 657.21719 2449.68 646.78829 2422.4788 647.4533 2418.8433 647.5422 2415.2867 647.825 2411.8143 648.3065M2939.1827 1063.8704C2939.1827 1049.2734 2927.3497 1037.4404 2912.7528 1037.4404 2898.156 1037.4404 2886.3228 1049.2734 2886.3228 1063.8704 2886.3228 1078.4673 2898.156 1090.3003 2912.7528 1090.3003 2927.3497 1090.3003 2939.1827 1078.4673 2939.1827 1063.8704"/>
</clipPath>
<clipPath id="clip_67">
<path transform="matrix(.24,0,0,.24,-4.285294,-136.16178)" d="M0 0H3200V2431.25H0Z"/>
</clipPath>
<clipPath id="clip_68">
<path transform="matrix(.24,0,0,.24,-4.285294,-136.16178)" d="M0 0H3200V2400H0Z"/>
</clipPath>
<clipPath id="clip_69">
<path transform="matrix(.24,0,0,.24,-4.285294,-136.16178)" d="M0 0H3200V2400H0Z"/>
</clipPath>
<clipPath id="clip_70">
<path transform="matrix(.24,0,0,.24,-4.285294,-136.16178)" d="M388.28349 1052.5936H929.2173V1334.5134H388.28349Z"/>
</clipPath>
<clipPath id="clip_71">
<path transform="matrix(.24,0,0,.24,-4.285294,-136.16178)" d="M441.14347 1307.4492C441.14347 1292.8523 429.31037 1281.0193 414.71348 1281.0193 400.11659 1281.0193 388.28349 1292.8523 388.28349 1307.4492 388.28349 1322.0462 400.11659 1333.8792 414.71348 1333.8792 429.31037 1333.8792 441.14347 1322.0462 441.14347 1307.4492M409.30647 1299.4067C398.6262 1306.5874 409.44026 1322.6721 420.12049 1315.4916 420.12049 1315.4916 420.20378 1315.4354 420.3683 1315.325 425.66539 1311.7676 515.64999 1251.5377 624.1987 1191.7869 653.7229 1175.5354 684.6218 1159.3186 715.5626 1144.291 787.7656 1109.2228 860.16299 1080.5333 915.54507 1073.4838 928.31167 1071.8588 925.86428 1052.6318 913.09768 1054.257 856.0873 1061.5137 781.45657 1090.7399 707.095 1126.8566 675.8568 1142.0286 644.6602 1158.3997 614.8523 1174.8074 505.52528 1234.9866 414.8978 1295.6517 409.55848 1299.2373 409.3897 1299.3507 409.30647 1299.4067 409.30647 1299.4067"/>
</clipPath>
<clipPath id="clip_72">
<path transform="matrix(.24,0,0,.24,-4.285294,-136.16178)" d="M0 0H3200V2431.25H0Z"/>
</clipPath>
<clipPath id="clip_73">
<path transform="matrix(.24,0,0,.24,-4.285294,-136.16178)" d="M0 0H3200V2400H0Z"/>
</clipPath>
<clipPath id="clip_74">
<path transform="matrix(.24,0,0,.24,-4.285294,-136.16178)" d="M0 0H3200V2400H0Z"/>
</clipPath>
<clipPath id="clip_75">
<path transform="matrix(.24,0,0,.24,-4.285294,-136.16178)" d="M886.9293 1036.7356H1429.6251V1179.4575H886.9293Z"/>
</clipPath>
<clipPath id="clip_76">
<path transform="matrix(.24,0,0,.24,-4.285294,-136.16178)" d="M940.75137 1063.8704C940.75137 1049.2734 928.9182 1037.4404 914.3214 1037.4404 899.7245 1037.4404 887.89138 1049.2734 887.89138 1063.8704 887.89138 1078.4673 899.7245 1090.3003 914.3214 1090.3003 928.9182 1090.3003 940.75137 1078.4673 940.75137 1063.8704M913.09768 1054.257C900.33108 1055.8821 902.77847 1075.1089 915.54507 1073.4838 924.9531 1072.2863 934.40359 1071.683 943.89089 1071.5982 1008.5668 1071.0204 1074.8695 1094.2896 1141.2118 1118.9506 1146.27 1120.8308 1151.3284 1122.7202 1156.386 1124.6096 1228.3818 1151.5032 1300.2811 1178.1224 1370.0195 1178.5896 1385.3197 1178.6921 1400.5202 1177.5497 1415.6017 1174.9072 1428.2783 1172.686 1424.9332 1153.5949 1412.2567 1155.8159 1398.3247 1158.2571 1384.2825 1159.3027 1370.1493 1159.208 1302.5319 1158.7551 1232.9232 1132.5095 1163.1683 1106.4529 1158.101 1104.56 1153.033 1102.667 1147.9651 1100.7831 1079.2926 1075.2559 1010.61367 1051.6194 943.71768 1052.217 933.4691 1052.3085 923.2606 1052.9634 913.09768 1054.257"/>
</clipPath>
<clipPath id="clip_77">
<path transform="matrix(.24,0,0,.24,-4.285294,-136.16178)" d="M0 0H3200V2431.25H0Z"/>
</clipPath>
<clipPath id="clip_78">
<path transform="matrix(.24,0,0,.24,-4.285294,-136.16178)" d="M0 0H3200V2400H0Z"/>
</clipPath>
<clipPath id="clip_79">
<path transform="matrix(.24,0,0,.24,-4.285294,-136.16178)" d="M0 0H3200V2400H0Z"/>
</clipPath>
<clipPath id="clip_80">
<path transform="matrix(.24,0,0,.24,-4.285294,-136.16178)" d="M1387.3372 846.43966H1930.033V1191.7915H1387.3372Z"/>
</clipPath>
<clipPath id="clip_81">
<path transform="matrix(.24,0,0,.24,-4.285294,-136.16178)" d="M1440.3593 1165.3616C1440.3593 1150.7647 1428.526 1138.9315 1413.9292 1138.9315 1399.3323 1138.9315 1387.4993 1150.7647 1387.4993 1165.3616 1387.4993 1179.9585 1399.3323 1191.7915 1413.9292 1191.7915 1428.526 1191.7915 1440.3593 1179.9585 1440.3593 1165.3616M1412.2567 1155.8159C1399.5802 1158.0371 1402.9253 1177.1282 1415.6017 1174.9072 1501.6288 1159.834 1583.1747 1099.367 1664.5753 1034.4085 1672.7449 1027.889 1680.9146 1021.32827 1689.089 1014.76968 1763.2589 955.2621 1837.7369 895.7102 1916.5321 870.1046 1928.7717 866.1272 1922.7816 847.69406 1910.5421 851.6715 1829.7285 877.933 1753.08 938.5797 1676.96 999.652 1668.7985 1006.19998 1660.6422 1012.7501 1652.4859 1019.259 1573.8925 1081.9773 1495.451 1141.2393 1412.2567 1155.8159"/>
</clipPath>
<clipPath id="clip_82">
<path transform="matrix(.24,0,0,.24,-4.285294,-136.16178)" d="M0 0H3200V2431.25H0Z"/>
</clipPath>
<clipPath id="clip_83">
<path transform="matrix(.24,0,0,.24,-4.285294,-136.16178)" d="M0 0H3200V2400H0Z"/>
</clipPath>
<clipPath id="clip_84">
<path transform="matrix(.24,0,0,.24,-4.285294,-136.16178)" d="M0 0H3200V2400H0Z"/>
</clipPath>
<clipPath id="clip_85">
<path transform="matrix(.24,0,0,.24,-4.285294,-136.16178)" d="M1885.983 807.67568H2428.679V888.72769H1885.983Z"/>
</clipPath>
<clipPath id="clip_86">
<path transform="matrix(.24,0,0,.24,-4.285294,-136.16178)" d="M1939.967 860.88809C1939.967 846.29116 1928.134 834.458 1913.5371 834.458 1898.9402 834.458 1887.107 846.29116 1887.107 860.88809 1887.107 875.4849 1898.9402 887.318 1913.5371 887.318 1928.134 887.318 1939.967 875.4849 1939.967 860.88809M1910.5421 851.6715C1898.3024 855.6489 1904.2925 874.08206 1916.5321 870.1046 2008.7012 840.15298 2105.0845 839.40298 2201.7789 839.39328 2205.1478 839.39297 2208.517 839.3937 2211.8868 839.3943 2213.5723 839.3946 2215.2576 839.3949 2216.943 839.395 2220.317 839.39529 2223.6903 839.39486 2227.0635 839.3926 2289.8802 839.3501 2352.6988 838.6436 2414.5045 829.8867 2427.2469 828.08139 2424.5279 808.891 2411.7855 810.6964 2350.872 819.32687 2288.9578 819.9687 2227.0506 820.01058 2223.682 820.0128 2220.3135 820.0133 2216.945 820.01309 2215.2606 820.01296 2213.5753 820.0126 2211.89 820.0123 2208.5189 820.01168 2205.1478 820.0109 2201.7769 820.0112 2103.02 820.0212 2004.646 821.09109 1910.5421 851.6715"/>
</clipPath>
<clipPath id="clip_87">
<path transform="matrix(.24,0,0,.24,-4.285294,-136.16178)" d="M0 0H3200V2431.25H0Z"/>
</clipPath>
<clipPath id="clip_88">
<path transform="matrix(.24,0,0,.24,-4.285294,-136.16178)" d="M0 0H3200V2400H0Z"/>
</clipPath>
<clipPath id="clip_89">
<path transform="matrix(.24,0,0,.24,-4.285294,-136.16178)" d="M0 0H3200V2400H0Z"/>
</clipPath>
<clipPath id="clip_90">
<path transform="matrix(.24,0,0,.24,-4.285294,-136.16178)" d="M2386.3909 691.38369H2939.6588V848.20169H2386.3909Z"/>
</clipPath>
<clipPath id="clip_91">
<path transform="matrix(.24,0,0,.24,-4.285294,-136.16178)" d="M2439.575 820.29159C2439.575 805.6947 2427.7418 793.8616 2413.145 793.8616 2398.548 793.8616 2386.715 805.6947 2386.715 820.29159 2386.715 834.8884 2398.548 846.72158 2413.145 846.72158 2427.7418 846.72158 2439.575 834.8884 2439.575 820.29159M2411.7855 810.6964C2399.043 812.5018 2401.7623 831.69216 2414.5045 829.8867 2469.8509 822.0451 2543.2296 808.3001 2616.7108 793.39578 2634.4949 789.7886 2652.285 786.11367 2669.8262 782.4386 2797.8682 755.61257 2912.643 728.77877 2914.9256 728.24478 2914.949 728.23928 2914.9608 728.2366 2914.9608 728.2366 2927.492 725.30459 2923.0762 706.43228 2910.5452 709.36428 2910.5452 709.36428 2910.5335 709.36697 2910.5106 709.3724 2908.2322 709.9053 2793.6636 736.6907 2665.8519 763.4685 2648.3509 767.13516 2630.6014 770.80166 2612.858 774.4006 2539.788 789.22146 2466.8218 802.8987 2411.7855 810.6964M2939.1827 718.8004C2939.1827 704.2035 2927.3497 692.3704 2912.7528 692.3704 2898.156 692.3704 2886.3228 704.2035 2886.3228 718.8004 2886.3228 733.3973 2898.156 745.2304 2912.7528 745.2304 2927.3497 745.2304 2939.1827 733.3973 2939.1827 718.8004"/>
</clipPath>
</defs>
<g>
<g clip-path="url(#clip_0)">
<path transform="matrix(.75,0,0,.75,-4.285294,-136.16178)" d="M0 0H1024V778H0Z" fill="#ffffff"/>
</g>
<g clip-path="url(#clip_1)">
<path transform="matrix(.75,0,0,.75,-4.285294,-136.16178)" d="M0 0H1024V768H0Z" fill="#ffffff"/>
</g>
<g clip-path="url(#clip_2)">
<path transform="matrix(.75,0,0,.75,-4.285294,-136.16178)" d="M0 0H1024V768H0Z" fill="#ffffff"/>
</g>
<g clip-path="url(#clip_3)">
<g id="layer_1" data-name="P">
</g>
<text fill="#c2c2c2" xml:space="preserve" transform="matrix(.42287988 0 0 .42287988 67.41815 271.36885)" font-size="35.79" font-family="Roboto" font-weight="bold"><tspan y="37" x=".015625 20.360739 39.902173 60.299699 80.679759 100.22119 113.630199">January</tspan></text>
<g id="layer_1" data-name="P">
</g>
<text fill="#c2c2c2" xml:space="preserve" transform="matrix(.42287988 0 0 .42287988 184.5142 271.36885)" font-size="35.79" font-family="Roboto" font-weight="bold"><tspan y="37" x=".015625 19.97637 39.675046 60.1774 73.5864 93.96646 113.5079 126.9169">February</tspan></text>
<g id="layer_1" data-name="P">
</g>
<text fill="#c2c2c2" xml:space="preserve" transform="matrix(.42287988 0 0 .42287988 313.1271 271.36885)" font-size="35.79" font-family="Roboto" font-weight="bold"><tspan y="37" x=".015625 31.717093 51.258527 64.66753 83.68482">March</tspan></text>
<g id="layer_1" data-name="P">
</g>
<text fill="#c2c2c2" xml:space="preserve" transform="matrix(.42287988 0 0 .42287988 438.5354 271.36885)" font-size="35.79" font-family="Roboto" font-weight="bold"><tspan y="37" x="0 24.433402 44.935758 58.344758 68.18961">April</tspan></text>
<g id="layer_1" data-name="P">
</g>
<text fill="#c2c2c2" xml:space="preserve" transform="matrix(.42287988 0 0 .42287988 560.2336 271.36885)" font-size="35.79" font-family="Roboto" font-weight="bold"><tspan y="37" x=".015625 31.717093 51.258527">May</tspan></text>
<g id="layer_1" data-name="P">
</g>
<text fill="#c2c2c2" xml:space="preserve" transform="matrix(.42287988 0 0 .42287988 677.75747 271.36885)" font-size="35.79" font-family="Roboto" font-weight="bold"><tspan y="37" x=".015625 20.360739 40.740797 61.13832">June</tspan></text>
</g>
<g clip-path="url(#clip_4)">
<g opacity=".2471">
<g clip-path="url(#clip_5)">
<path transform="matrix(.42287988,0,0,.42287988,35.293,21.524138)" d="M0 0H1701V577H0Z" fill="#c2c2c2"/>
</g>
</g>
</g>
<g clip-path="url(#clip_6)">
<g opacity=".2471">
<g clip-path="url(#clip_7)">
<path transform="matrix(.42287988,0,0,.42287988,35.293,21.52414)" d="M0 0H1701V577H0Z" fill="#c2c2c2"/>
</g>
</g>
</g>
<g clip-path="url(#clip_8)">
<g opacity=".2471">
<g clip-path="url(#clip_9)">
<path transform="matrix(.42287988,0,0,.42287988,35.293,21.52414)" d="M0 0H1701V577H0Z" fill="#c2c2c2"/>
</g>
</g>
</g>
<g clip-path="url(#clip_10)">
<g opacity=".2471">
<g clip-path="url(#clip_11)">
<path transform="matrix(.42287988,0,0,.42287988,35.293,21.524155)" d="M0 0H1701V577H0Z" fill="#c2c2c2"/>
</g>
</g>
</g>
<g clip-path="url(#clip_12)">
<g opacity=".2471">
<g clip-path="url(#clip_13)">
<path transform="matrix(.42287988,0,0,.42287988,35.293,21.524155)" d="M0 0H1701V577H0Z" fill="#c2c2c2"/>
</g>
</g>
</g>
<g clip-path="url(#clip_14)">
<g opacity=".6">
<g clip-path="url(#clip_15)">
<path transform="matrix(.42287988,0,0,.42287988,35.293,21.524125)" d="M0 0H1701V577H0Z" fill="#c2c2c2"/>
</g>
</g>
</g>
<g clip-path="url(#clip_16)">
<g id="layer_1" data-name="P">
</g>
<text fill="#c2c2c2" xml:space="preserve" transform="matrix(.42287988 0 0 .42287988 6.28297 11.1635899)" font-size="35.79" font-family="Roboto" font-weight="bold"><tspan y="37" x=".03125 20.917975">50</tspan></text>
<g id="layer_1" data-name="P">
</g>
<text fill="#c2c2c2" xml:space="preserve" transform="matrix(.42287988 0 0 .42287988 6.28297 11.1635899)" font-size="35.79" font-family="Roboto" font-weight="bold"><tspan y="37" x="41.796876"> </tspan></text>
<g id="layer_1" data-name="P">
</g>
<text fill="#c2c2c2" xml:space="preserve" transform="matrix(.42287988 0 0 .42287988 6.28297 59.879365)" font-size="35.79" font-family="Roboto" font-weight="bold"><tspan y="37" x=".03125 20.917975">40</tspan></text>
<g id="layer_1" data-name="P">
</g>
<text fill="#c2c2c2" xml:space="preserve" transform="matrix(.42287988 0 0 .42287988 6.28297 59.879365)" font-size="35.79" font-family="Roboto" font-weight="bold"><tspan y="37" x="41.796876"> </tspan></text>
<g id="layer_1" data-name="P">
</g>
<text fill="#c2c2c2" xml:space="preserve" transform="matrix(.42287988 0 0 .42287988 6.28297 108.59512)" font-size="35.79" font-family="Roboto" font-weight="bold"><tspan y="37" x=".03125 20.917975">30</tspan></text>
<g id="layer_1" data-name="P">
</g>
<text fill="#c2c2c2" xml:space="preserve" transform="matrix(.42287988 0 0 .42287988 6.28297 108.59512)" font-size="35.79" font-family="Roboto" font-weight="bold"><tspan y="37" x="41.796876"> </tspan></text>
<g id="layer_1" data-name="P">
</g>
<text fill="#c2c2c2" xml:space="preserve" transform="matrix(.42287988 0 0 .42287988 6.28297 157.31089)" font-size="35.79" font-family="Roboto" font-weight="bold"><tspan y="37" x=".03125 20.917975">20</tspan></text>
<g id="layer_1" data-name="P">
</g>
<text fill="#c2c2c2" xml:space="preserve" transform="matrix(.42287988 0 0 .42287988 6.28297 157.31089)" font-size="35.79" font-family="Roboto" font-weight="bold"><tspan y="37" x="41.796876"> </tspan></text>
<g id="layer_1" data-name="P">
</g>
<text fill="#c2c2c2" xml:space="preserve" transform="matrix(.42287988 0 0 .42287988 6.28297 206.02664)" font-size="35.79" font-family="Roboto" font-weight="bold"><tspan y="37" x=".03125 20.917975">10</tspan></text>
<g id="layer_1" data-name="P">
</g>
<text fill="#c2c2c2" xml:space="preserve" transform="matrix(.42287988 0 0 .42287988 6.28297 206.02664)" font-size="35.79" font-family="Roboto" font-weight="bold"><tspan y="37" x="41.796876"> </tspan></text>
<g id="layer_1" data-name="P">
</g>
<text fill="#c2c2c2" xml:space="preserve" transform="matrix(.42287988 0 0 .42287988 15.117195 254.74237)" font-size="35.79" font-family="Roboto" font-weight="bold"><tspan y="37" x=".03125">0</tspan></text>
<g id="layer_1" data-name="P">
</g>
<text fill="#c2c2c2" xml:space="preserve" transform="matrix(.42287988 0 0 .42287988 15.117195 254.74237)" font-size="35.79" font-family="Roboto" font-weight="bold"><tspan y="37" x="20.90625"> </tspan></text>
</g>
<g clip-path="url(#clip_17)">
<g clip-path="url(#clip_18)">
<g clip-path="url(#clip_19)">
<g clip-path="url(#clip_20)">
<g clip-path="url(#clip_21)">
<path transform="matrix(.42287988,0,0,.42287988,88.90274,15.392395)" d="M0 0H1448V606H0Z" fill="#ff5ce5"/>
</g>
</g>
</g>
</g>
</g>
<g clip-path="url(#clip_22)">
<g clip-path="url(#clip_23)">
<g clip-path="url(#clip_24)">
<g clip-path="url(#clip_25)">
<g clip-path="url(#clip_26)">
<path transform="matrix(.42287988,0,0,.42287988,88.90274,15.392395)" d="M0 0H1448V606H0Z" fill="#ff5ce5"/>
</g>
</g>
</g>
</g>
</g>
<g clip-path="url(#clip_27)">
<g clip-path="url(#clip_28)">
<g clip-path="url(#clip_29)">
<g clip-path="url(#clip_30)">
<g clip-path="url(#clip_31)">
<path transform="matrix(.42287988,0,0,.42287988,88.90274,15.392395)" d="M0 0H1448V606H0Z" fill="#ff5ce5"/>
</g>
</g>
</g>
</g>
</g>
<g clip-path="url(#clip_32)">
<g clip-path="url(#clip_33)">
<g clip-path="url(#clip_34)">
<g clip-path="url(#clip_35)">
<g clip-path="url(#clip_36)">
<path transform="matrix(.42287988,0,0,.42287988,88.90274,15.392395)" d="M0 0H1448V606H0Z" fill="#ff5ce5"/>
</g>
</g>
</g>
</g>
</g>
<g clip-path="url(#clip_37)">
<g clip-path="url(#clip_38)">
<g clip-path="url(#clip_39)">
<g clip-path="url(#clip_40)">
<g clip-path="url(#clip_41)">
<path transform="matrix(.42287988,0,0,.42287988,88.90274,15.392395)" d="M0 0H1448V606H0Z" fill="#ff5ce5"/>
</g>
</g>
</g>
</g>
</g>
<g clip-path="url(#clip_42)">
<g clip-path="url(#clip_43)">
<g clip-path="url(#clip_44)">
<g clip-path="url(#clip_45)">
<g clip-path="url(#clip_46)">
<path transform="matrix(.42287988,0,0,.42287988,88.90274,15.392395)" d="M0 0H1448V606H0Z" fill="#ff914d"/>
</g>
</g>
</g>
</g>
</g>
<g clip-path="url(#clip_47)">
<g clip-path="url(#clip_48)">
<g clip-path="url(#clip_49)">
<g clip-path="url(#clip_50)">
<g clip-path="url(#clip_51)">
<path transform="matrix(.42287988,0,0,.42287988,88.90274,15.392395)" d="M0 0H1448V606H0Z" fill="#ff914d"/>
</g>
</g>
</g>
</g>
</g>
<g clip-path="url(#clip_52)">
<g clip-path="url(#clip_53)">
<g clip-path="url(#clip_54)">
<g clip-path="url(#clip_55)">
<g clip-path="url(#clip_56)">
<path transform="matrix(.42287988,0,0,.42287988,88.90274,15.392395)" d="M0 0H1448V606H0Z" fill="#ff914d"/>
</g>
</g>
</g>
</g>
</g>
<g clip-path="url(#clip_57)">
<g clip-path="url(#clip_58)">
<g clip-path="url(#clip_59)">
<g clip-path="url(#clip_60)">
<g clip-path="url(#clip_61)">
<path transform="matrix(.42287988,0,0,.42287988,88.90274,15.392395)" d="M0 0H1448V606H0Z" fill="#ff914d"/>
</g>
</g>
</g>
</g>
</g>
<g clip-path="url(#clip_62)">
<g clip-path="url(#clip_63)">
<g clip-path="url(#clip_64)">
<g clip-path="url(#clip_65)">
<g clip-path="url(#clip_66)">
<path transform="matrix(.42287988,0,0,.42287988,88.90274,15.392395)" d="M0 0H1448V606H0Z" fill="#ff914d"/>
</g>
</g>
</g>
</g>
</g>
<g clip-path="url(#clip_67)">
<g clip-path="url(#clip_68)">
<g clip-path="url(#clip_69)">
<g clip-path="url(#clip_70)">
<g clip-path="url(#clip_71)">
<path transform="matrix(.42287988,0,0,.42287988,88.90274,15.392395)" d="M0 0H1448V606H0Z" fill="#ff3131"/>
</g>
</g>
</g>
</g>
</g>
<g clip-path="url(#clip_72)">
<g clip-path="url(#clip_73)">
<g clip-path="url(#clip_74)">
<g clip-path="url(#clip_75)">
<g clip-path="url(#clip_76)">
<path transform="matrix(.42287988,0,0,.42287988,88.90274,15.392395)" d="M0 0H1448V606H0Z" fill="#ff3131"/>
</g>
</g>
</g>
</g>
</g>
<g clip-path="url(#clip_77)">
<g clip-path="url(#clip_78)">
<g clip-path="url(#clip_79)">
<g clip-path="url(#clip_80)">
<g clip-path="url(#clip_81)">
<path transform="matrix(.42287988,0,0,.42287988,88.90274,15.392395)" d="M0 0H1448V606H0Z" fill="#ff3131"/>
</g>
</g>
</g>
</g>
</g>
<g clip-path="url(#clip_82)">
<g clip-path="url(#clip_83)">
<g clip-path="url(#clip_84)">
<g clip-path="url(#clip_85)">
<g clip-path="url(#clip_86)">
<path transform="matrix(.42287988,0,0,.42287988,88.90274,15.392395)" d="M0 0H1448V606H0Z" fill="#ff3131"/>
</g>
</g>
</g>
</g>
</g>
<g clip-path="url(#clip_87)">
<g clip-path="url(#clip_88)">
<g clip-path="url(#clip_89)">
<g clip-path="url(#clip_90)">
<g clip-path="url(#clip_91)">
<path transform="matrix(.42287988,0,0,.42287988,88.90274,15.392395)" d="M0 0H1448V606H0Z" fill="#ff3131"/>
</g>
</g>
</g>
</g>
</g>
</g>
</svg>
